<?xml version="1.0" encoding="UTF-8" standalone="no"?>
<!-- Generator: Adobe Illustrator 16.0.0, SVG Export Plug-In . SVG Version: 6.00 Build 0)  -->

<svg
   xmlns:dc="http://purl.org/dc/elements/1.1/"
   xmlns:cc="http://creativecommons.org/ns#"
   xmlns:rdf="http://www.w3.org/1999/02/22-rdf-syntax-ns#"
   xmlns:svg="http://www.w3.org/2000/svg"
   xmlns="http://www.w3.org/2000/svg"
   xmlns:sodipodi="http://sodipodi.sourceforge.net/DTD/sodipodi-0.dtd"
   xmlns:inkscape="http://www.inkscape.org/namespaces/inkscape"
   version="1.1"
   id="svg8"
   sodipodi:docname="contact.svg"
   inkscape:version="0.92.1 r15371"
   shape-rendering="crispEdges">
  <metadata
     id="metadata14">
    <rdf:RDF>
      <cc:Work
         rdf:about="">
        <dc:format>image/svg+xml</dc:format>
        <dc:type
           rdf:resource="http://purl.org/dc/dcmitype/StillImage" />
        <dc:title />
      </cc:Work>
    </rdf:RDF>
  </metadata>
  <defs
     id="defs12" />
  <sodipodi:namedview
     pagecolor="#ffffff"
     bordercolor="#666666"
     borderopacity="1"
     objecttolerance="10"
     gridtolerance="10"
     guidetolerance="10"
     inkscape:pageopacity="0"
     inkscape:pageshadow="2"
     inkscape:window-width="1366"
     inkscape:window-height="705"
     id="namedview10"
     showgrid="false"
     inkscape:zoom="6.675088"
     inkscape:cx="23.760903"
     inkscape:cy="25.82524"
     inkscape:window-x="1276"
     inkscape:window-y="-4"
     inkscape:window-maximized="1"
     inkscape:current-layer="icon-mail"
     showborder="false"
     inkscape:pagecheckerboard="true" />
  <g
     id="icon-phone"
     x="0px"
     y="0px"
     width="40px"
     height="40px"
     viewBox="0 0 40 40"
     transform="matrix(0.078125,0,0,0.078125,-3.745269,30.876655)">
    <path
       d="m 303.93944,-363.22119 c 123.5,0 224,100.5 224,224 0,123.499995 -100.5,223.999995 -224,223.999995 -123.5,0 -223.999997,-100.5 -223.999997,-223.999995 0,-123.5 100.499997,-224 223.999997,-224 m 0,-32 c -141.375,0 -255.999997,114.625 -255.999997,256 0,141.374995 114.624997,256 255.999997,256 141.375,0 256,-114.625005 256,-256 0,-141.375 -114.625,-256 -256,-256 z m 142.719,341.593995 -1.438,-4.375 c -3.375,-10.062 -14.5,-20.562 -24.75,-23.375 l -37.843,-10.344 c -10.25,-2.781 -24.875,0.969 -32.405,8.5 l -13.688,13.688 c -49.75,-13.469 -88.781,-52.499995 -102.219,-102.249995 l 13.688,-13.688 c 7.5,-7.5 11.25,-22.125 8.469,-32.406 l -10.314,-37.844 c -2.781,-10.25 -13.344,-21.375 -23.406,-24.75 l -4.313,-1.438 c -10.094,-3.375 -24.5,0.031 -32,7.563 l -20.5,20.5 c -3.656,3.625 -6,14.031 -6,14.063 -0.688,65.063 24.813,127.719 70.813,173.749995 45.875,45.875 108.313,71.345 173.156,70.781 0.344,0 11.063,-2.281 14.719,-5.938 l 20.5,-20.5 c 7.5,-7.469 10.874,-21.875 7.531,-31.937 z"
       id="path2"
       inkscape:connector-curvature="0"
       inkscape:label="path2" />
  </g>
  <g
     id="icon-mail"
     x="0px"
     y="0px"
     width="40px"
     height="40px"
     viewBox="0 0 40 40"
     transform="matrix(0.078125,0,0,0.078125,-4.5879544,55.973831)">
    <g
       id="g4514"
       transform="translate(2.0000002e-7,-767.99999)">
      <g
         transform="matrix(0.7003032,0,0,0.7003032,143.74169,134.62687)"
         viewBox="0 0 35 35"
         height="35px"
         width="35px"
         y="0px"
         x="0px"
         id="125">
        <path
           inkscape:connector-curvature="0"
           id="path5"
           d="M 301.393,241.631 464.866,424.56 H 20.332 l 163.474,-182.928 58.801,51.443 z M 462.174,60.651 H 23.027 L 242.606,252.793 Z M 324.225,221.67 485.211,401.821 V 80.792 Z M 0,80.792 V 401.821 L 160.972,221.64 Z" />
      </g>
      <path
         sodipodi:nodetypes="cssscsssss"
         inkscape:connector-curvature="0"
         id="path2-3"
         d="m 314.72582,83.534901 c 123.5,0 224,100.499999 224,223.999999 0,123.5 -100.5,224 -224,224 -123.5,0 -224.000003,-100.5 -224.000003,-224 0,-123.5 100.500003,-223.999999 224.000003,-223.999999 m 0,-32 c -141.375,0 -256.000003,114.624999 -256.000003,255.999999 0,141.375 114.625003,256 256.000003,256 141.375,0 256,-114.625 256,-256 0,-141.375 -114.625,-255.999999 -256,-255.999999 z" />
    </g>
  </g>
</svg>
