<?xml version="1.0" encoding="UTF-8" standalone="no"?>
<!-- Created with Inkscape (http://www.inkscape.org/) -->

<svg>
	<g id="icon-phone" viewBox="0 0 32 32">
      <path
         id="path11418"
         d="M 84.198838,30.867209 C 78.782802,30.068792 73.693102,24.74373 73.343387,19.509769 c -0.04795,-0.717612 -0.01493,-1.40569 0.08807,-1.83501 0.191897,-0.799916 0.77761,-1.670317 1.305978,-1.940752 1.948389,-0.997247 3.829759,0.531085 3.840483,3.119821 0.0036,0.864657 -0.0559,1.125821 -0.433226,1.902229 -0.469387,0.965829 -0.472311,1.214096 -0.02484,2.10853 0.792914,1.584913 3.228451,3.606422 4.345059,3.606422 0.169889,0 0.623832,-0.19544 1.008761,-0.434314 0.6164,-0.38251 0.804741,-0.432387 1.579089,-0.418187 2.080448,0.03816 3.75236,1.186569 3.75236,2.577441 0,1.88667 -2.012328,3.053652 -4.606283,2.67126 z"
         style="opacity:1;fill:#000000;fill-opacity:1;stroke:#000000;stroke-width:0.13384521;stroke-linejoin:miter;stroke-miterlimit:4;stroke-dasharray:none;stroke-dashoffset:0;stroke-opacity:1;paint-order:fill markers stroke" />
      <path
         id="path11420"
         d="m 79.450689,36.684455 c -0.183747,-0.03193 -0.785103,-0.124273 -1.336346,-0.205219 -1.56163,-0.229309 -2.941178,-0.723368 -4.06091,-1.454335 -1.214422,-0.792785 -3.055707,-2.526935 -3.969789,-3.738809 -0.930023,-1.233006 -1.931333,-3.316398 -2.346318,-4.881901 -0.308093,-1.162262 -0.35424,-1.597475 -0.35424,-3.340867 0,-1.743393 0.04615,-2.178609 0.35424,-3.34087 0.746241,-2.815145 2.418781,-5.38976 4.702912,-7.239399 1.271152,-1.029351 3.340501,-2.186281 4.337758,-2.425151 1.98497,-0.4754543 5.887796,-0.5127659 7.999989,-0.076481 3.487039,0.720268 7.299846,4.062389 8.831286,7.741073 0.843074,2.025155 0.992232,2.832597 0.998953,5.407646 0.0054,2.057323 -0.03176,2.47523 -0.30865,3.474503 -0.380788,1.374211 -1.247883,3.269734 -2.024798,4.426331 -0.781576,1.163534 -2.570882,2.912075 -3.803158,3.716514 -2.272911,1.48377 -3.622357,1.881225 -6.615501,1.948474 -1.139238,0.02559 -2.22168,0.02043 -2.405428,-0.01151 z m 4.680046,-2.311146 c 4.102028,-1.113272 7.053238,-4.0894 8.16742,-8.236387 0.376621,-1.401781 0.412715,-4.462132 0.06915,-5.863402 -0.680172,-2.774178 -2.260574,-5.031329 -4.634714,-6.619368 -2.080305,-1.391492 -4.236657,-2.040508 -6.811923,-2.050243 -8.008676,-0.03027 -13.367456,7.607001 -10.793857,15.383289 1.315193,3.97393 4.336558,6.702163 8.388432,7.574581 1.258586,0.270992 4.298461,0.168963 5.615488,-0.18847 z"
         style="opacity:1;fill:#000000;fill-opacity:1;stroke:#000000;stroke-width:0.13384521;stroke-linejoin:miter;stroke-miterlimit:4;stroke-dasharray:none;stroke-dashoffset:0;stroke-opacity:1;paint-order:fill markers stroke" />
	</g>
	<g id="icon-mail" viewBox="0 0 32 32">
      <path
         id="path11432"
         d="m 78.782516,80.17753 c -3.428762,-0.230407 -5.470946,-1.077901 -7.845257,-3.25574 -2.886221,-2.647389 -4.719848,-6.692667 -4.715623,-10.40343 0.0011,-1.009917 0.344618,-3.099408 0.673886,-4.099599 1.130681,-3.434575 3.657066,-6.368661 6.960566,-8.083849 1.824694,-0.947388 2.484395,-1.063072 6.062324,-1.063072 3.318134,0 4.177191,0.120917 5.651362,0.795451 2.032296,0.929915 4.432041,2.943286 5.634061,4.726945 0.834547,1.238367 1.692368,3.130966 2.040165,4.501177 0.427223,1.683125 0.428943,5.223687 0.0033,6.763972 -1.048993,3.795895 -3.435067,6.877195 -6.797889,8.778584 -2.076016,1.173808 -4.314163,1.564857 -7.666881,1.339561 z m 3.745042,-2.181304 c 4.340095,-0.910413 7.627226,-4.101131 8.710012,-8.454551 0.409704,-1.647248 0.40414,-4.445304 -0.01191,-5.987018 -0.580689,-2.151814 -1.53633,-3.736385 -3.188256,-5.286515 -3.790513,-3.556932 -9.661255,-4.221597 -14.083366,-1.59447 -1.835257,1.090309 -3.752438,3.230761 -4.58992,5.124456 -0.972683,2.199407 -1.22433,5.241956 -0.630247,7.620018 0.944584,3.781094 3.496168,6.803231 6.829159,8.088569 0.902634,0.348091 1.614379,0.513779 3.152664,0.733912 0.65745,0.09408 2.87651,-0.04819 3.81186,-0.244401 z"
         style="opacity:1;fill:#000000;fill-opacity:1;stroke:#000000;stroke-width:0.13384521;stroke-linejoin:miter;stroke-miterlimit:4;stroke-dasharray:none;stroke-dashoffset:0;stroke-opacity:1;paint-order:fill markers stroke" />
      <path
         id="path11506"
         d="m 77.509617,64.775384 -3.113555,-2.551819 3.218584,-0.01891 c 1.77022,-0.01048 4.64707,-0.01048 6.393002,0 l 3.174414,0.01891 -2.726824,2.120199 c -1.499743,1.166116 -2.975493,2.314433 -3.279434,2.551819 l -0.552623,0.431622 z"
         style="opacity:1;fill:#000000;fill-opacity:1;stroke:none;stroke-width:0.15513955;stroke-linecap:butt;stroke-linejoin:miter;stroke-miterlimit:4;stroke-dasharray:none;stroke-dashoffset:0;stroke-opacity:1;paint-order:fill markers stroke" />
      <path
         id="path11508"
         d="m 84.922068,68.487134 c -1.284907,-1.049556 -2.336197,-1.937641 -2.336197,-1.973526 0,-0.03588 0.878691,-0.748111 1.952642,-1.582729 1.073954,-0.834619 2.148778,-1.672534 2.388499,-1.862033 l 0.435859,-0.34455 v 3.84155 c 0,2.112853 -0.02352,3.838855 -0.05231,3.835563 -0.02876,-0.0033 -1.103589,-0.864718 -2.388498,-1.914275 z"
         style="opacity:1;fill:#000000;fill-opacity:1;stroke:none;stroke-width:0.03769103;stroke-linecap:butt;stroke-linejoin:miter;stroke-miterlimit:4;stroke-dasharray:none;stroke-dashoffset:0;stroke-opacity:1;paint-order:fill markers stroke" />
      <path
         id="path11510"
         d="m 74.153944,70.63783 c 0.09853,-0.09362 0.992441,-0.92884 1.986539,-1.856032 0.994089,-0.927192 1.942437,-1.81391 2.107445,-1.970484 l 0.30001,-0.284684 0.856747,0.706816 c 0.471209,0.388752 0.911919,0.75365 0.97936,0.810873 0.11015,0.09349 0.210357,0.03606 0.986066,-0.564643 0.474902,-0.367784 0.891468,-0.660239 0.925708,-0.649905 0.07773,0.02349 4.870024,3.909871 4.870024,3.949433 0,0.01586 -2.967977,0.02885 -6.595502,0.02885 h -6.595498 z"
         style="opacity:1;fill:#000000;fill-opacity:1;stroke:none;stroke-width:0.03907476;stroke-linecap:butt;stroke-linejoin:miter;stroke-miterlimit:4;stroke-dasharray:none;stroke-dashoffset:0;stroke-opacity:1;paint-order:fill markers stroke" />
      <path
         id="path11512"
         d="m 73.704312,62.320145 v 4.130315 4.130321 l 0.213609,-0.179453 c 0.753767,-0.634255 4.493364,-4.21319 4.446963,-4.255938 -0.03128,-0.02882 -0.932583,-0.769075 -2.002928,-1.644597 -1.07034,-0.875528 -2.10609,-1.723994 -2.30163,-1.885998 z"
         style="opacity:1;fill:#000000;fill-opacity:1;stroke:none;stroke-width:0.04045386;stroke-linecap:butt;stroke-linejoin:miter;stroke-miterlimit:4;stroke-dasharray:none;stroke-dashoffset:0;stroke-opacity:1;paint-order:fill markers stroke" />
	</g>
 </svg>
